<?xml version="1.0" encoding="utf-8"?>
<!-- Generator: Adobe Illustrator 27.5.0, SVG Export Plug-In . SVG Version: 6.00 Build 0)  -->
<svg version="1.1" xmlns="http://www.w3.org/2000/svg" xmlns:xlink="http://www.w3.org/1999/xlink" x="0px" y="0px"
	 viewBox="0 0 500 500" style="enable-background:new 0 0 500 500;" xml:space="preserve">
<g id="BACKGROUND">
</g>
<g id="OBJECTS">
	<g>
		<g>
			
				<text transform="matrix(1 0 0 1 127.1511 331.3213)" style="fill:#333333; font-family:'Montserrat-ExtraBold'; font-size:36px; letter-spacing:2;">TRAVELERS</text>
			
				<text transform="matrix(1 0 0 1 201.1499 351.8076)" style="fill:#4AB5DB; font-family:'Montserrat-Light'; font-size:11.4313px; letter-spacing:1;">TAGLINE HERE</text>
		</g>
		<g>
			<g>
				<g>
					<linearGradient id="SVGID_1_" gradientUnits="userSpaceOnUse" x1="188.5863" y1="182.2262" x2="274.6305" y2="182.2262">
						<stop  offset="0" style="stop-color:#B1683C"/>
						<stop  offset="0.6625" style="stop-color:#CDA11C"/>
						<stop  offset="1" style="stop-color:#D9B90E"/>
					</linearGradient>
					<path style="fill:url(#SVGID_1_);" d="M274.036,177.545c-0.112,0.225-0.241,0.45-0.386,0.659
						c-0.691,1.012-1.462,2.121-2.33,3.326c-8.001,11.102-23.152,28.807-44.6,28.855c-1.832,0-3.711-0.112-5.639-0.385
						c-46.48-6.459-29.915-34.35-28.405-36.712c0-0.016,0-0.016,0.016-0.032c0.016-0.048,0.048-0.08,0.08-0.128
						c0,0,3.84-5.125,10.957-10.058c13.062-9.061,37.145-17.48,68.812,7.632C274.614,172.355,275.209,175.231,274.036,177.545z"/>
					
						<linearGradient id="SVGID_00000073685853878519609010000014254660601394411173_" gradientUnits="userSpaceOnUse" x1="183.6764" y1="213.0717" x2="285.4268" y2="213.0717">
						<stop  offset="0" style="stop-color:#D9B90E"/>
						<stop  offset="0.3375" style="stop-color:#CDA11C"/>
						<stop  offset="1" style="stop-color:#B1683C"/>
					</linearGradient>
					<path style="fill:url(#SVGID_00000073685853878519609010000014254660601394411173_);" d="M285.427,202.046v0.096
						c0,14.363-5.945,27.329-15.52,36.567c-3.245,3.165-6.925,5.88-10.925,8.065c-8.226,4.515-17.817,6.812-28.004,6.121
						c-18.605-1.269-34.623-12.773-42.335-28.887c-2.105-4.354-3.599-9.062-4.354-14.01c-0.209-1.317-0.37-2.667-0.466-4.017
						c-0.916-12.178,2.506-23.521,8.853-32.695c0-0.016,0-0.016,0.016-0.032c0.016-0.048,0.048-0.08,0.08-0.128
						c0,0.016,0,0.048,0.016,0.064c2.747,17.4,16.115,31.683,33.932,37.194c5.141,1.607,10.668,2.474,16.404,2.474
						c14.01,0,26.702-5.173,35.892-13.528C281.458,197.13,285.427,198.768,285.427,202.046z"/>
				</g>
				<path style="fill:#FFFFFF;" d="M274.036,177.545c-0.112,0.225-0.241,0.45-0.386,0.659c-0.691,1.012-1.462,2.121-2.33,3.326
					c-24.453-14.171-45.998-18.99-64.281-14.379c-5.511,1.382-10.234,3.551-14.251,6.041c-0.032,0.016-0.064,0.032-0.096,0.064
					c0.016-0.048,0.048-0.08,0.08-0.128c0,0,3.84-5.125,10.957-10.058c0.707-0.225,1.414-0.418,2.137-0.594
					C225.467,157.526,248.329,162.587,274.036,177.545z"/>
				<path style="fill:#FFFFFF;" d="M269.907,238.709c-3.245,3.165-6.925,5.88-10.925,8.065c-5.72,1.189-11.68,1.896-17.737,1.896
					c-5.945,0-11.986-0.675-18.01-2.265c-13.239-3.486-24.79-10.973-34.591-22.396c-2.105-4.354-3.599-9.062-4.354-14.01
					c10.716,16.87,24.164,27.522,40.166,31.747C240.039,245.859,256.106,243.32,269.907,238.709z"/>
			</g>
			<g>
				<g>
					<path style="fill:#333333;" d="M282.819,150.412c2.059,2.266,3.846,4.491,3.846,4.491s-0.518,1.954-1.218,4.649
						c-0.358-0.406-0.725-0.735-0.974-0.754c-0.561-0.041-1.234,0.695-1.144,1.22c0.062,0.364,0.93,1.081,1.596,1.548
						c-0.283,1.099-0.581,2.259-0.876,3.42c-0.353-0.398-0.714-0.718-0.959-0.736c-0.561-0.041-1.233,0.695-1.144,1.22
						c0.062,0.363,0.926,1.078,1.592,1.544c-1.037,4.14-1.908,7.822-1.81,8.137c0.23,0.744,1.164,1.766,1.419,1.655
						c0.152-0.066,1.648-3.784,2.985-6.985c0.375,0.318,0.689,0.488,0.781,0.399c0.106-0.102-0.125-0.521-0.532-0.993
						c0.098-0.234,0.195-0.462,0.289-0.686c0.324,0.257,0.584,0.384,0.666,0.305c0.097-0.093-0.086-0.448-0.426-0.867
						c0.571-1.329,1.039-2.358,1.248-2.649c0.024-0.033,0.05-0.07,0.078-0.108c0.351,0.289,0.639,0.438,0.726,0.354
						c0.093-0.09-0.072-0.421-0.386-0.818c0.133-0.182,0.284-0.385,0.446-0.602c0.327,0.261,0.592,0.392,0.675,0.313
						c0.088-0.085-0.057-0.389-0.342-0.76c1.099-1.475,2.46-3.282,2.46-3.282s6.325,6.08,8.584,7.56
						c2.259,1.48,6.716,4.806,7.11,4.426c0.394-0.38-2.758-4.965-4.151-7.281c-1.393-2.316-7.222-8.874-7.222-8.874
						s1.854-1.295,3.367-2.339c0.36,0.299,0.657,0.456,0.745,0.371c0.083-0.08-0.038-0.35-0.286-0.687
						c0.223-0.154,0.431-0.297,0.618-0.424c0.384,0.33,0.709,0.507,0.801,0.417c0.087-0.084-0.051-0.378-0.326-0.74
						c0.04-0.027,0.077-0.052,0.111-0.074c0.299-0.199,1.342-0.629,2.69-1.15c0.405,0.356,0.752,0.552,0.849,0.459
						c0.082-0.079-0.036-0.344-0.28-0.678c0.226-0.086,0.458-0.175,0.695-0.264c0.455,0.425,0.865,0.672,0.971,0.569
						c0.091-0.088-0.066-0.409-0.369-0.796c3.244-1.219,7.009-2.577,7.081-2.726c0.119-0.251-0.865-1.224-1.599-1.482
						c-0.311-0.11-4.017,0.625-8.187,1.508c-0.441-0.684-1.122-1.575-1.481-1.651c-0.521-0.109-1.28,0.536-1.26,1.1
						c0.009,0.247,0.315,0.619,0.699,0.988c-1.17,0.251-2.339,0.506-3.445,0.748c-0.44-0.685-1.124-1.58-1.484-1.656
						c-0.521-0.109-1.28,0.536-1.26,1.1c0.009,0.25,0.324,0.629,0.716,1.003c-2.715,0.6-4.684,1.045-4.684,1.045
						s-2.153-1.871-4.337-4.017c-2.184-2.146-3.698-0.868-4.042-0.536C282.091,146.679,280.76,148.146,282.819,150.412z"/>
					<path style="fill:#333333;" d="M302.67,168.945c-0.269-0.187-0.533-0.37-0.788-0.545c-0.463,2.808-1.22,7.62-1.048,8.069
						c0.245,0.637,1.221,1.269,1.221,1.269l3.687-6.717C305.002,170.548,304.011,169.874,302.67,168.945z"/>
					<path style="fill:#333333;" d="M306.319,170.754l6.84-3.439c0,0-0.594-1-1.221-1.269c-0.441-0.189-5.271,0.388-8.09,0.747
						c0.166,0.262,0.339,0.533,0.515,0.809C305.24,168.98,305.875,169.997,306.319,170.754z"/>
				</g>
			</g>
			
				<linearGradient id="SVGID_00000165231086279999369230000002563617037693989773_" gradientUnits="userSpaceOnUse" x1="287.1919" y1="180.9489" x2="197.9589" y2="337.6846">
				<stop  offset="0" style="stop-color:#4AB5DB"/>
				<stop  offset="0.3996" style="stop-color:#459DCC"/>
				<stop  offset="1" style="stop-color:#3C72B1"/>
			</linearGradient>
			<path style="fill:url(#SVGID_00000165231086279999369230000002563617037693989773_);" d="M307.472,240.385
				c-0.825,0.391-1.587-0.628-0.996-1.324c10.294-12.104,15.168-26.804,17.102-40.997c0.749-5.497-0.087-11.092-2.453-16.11
				l-0.087-0.185c-2.261-4.796-8.542-5.914-12.376-2.25c-2.71,2.59-5.228,4.769-7.462,6.571c-2.128,1.716-3.248,4.425-2.798,7.122
				c0.964,5.779,1.104,11.763,0.307,17.793c-4.648,35.163-37.782,58.699-72.116,52.109c-17.087-3.28-31.124-13.387-39.852-26.947
				c-0.427-0.664-1.449-0.17-1.193,0.576c8.25,24.002,28.758,43.044,55.471,48.17c16.148,3.099,32.069,0.628,45.796-6.056
				c0.659-0.321,0.457-1.303-0.275-1.346c-1.325-0.077-2.454-0.223-3.388-0.39c-0.896-0.161-0.935-1.418-0.052-1.64
				c9.128-2.294,17.233-6.438,24.367-11.6c9.57-9.884,16.479-22.559,19.266-37.079c0.32-1.665,0.576-3.328,0.776-4.986
				c0.059-0.492-0.6-0.72-0.866-0.303C318.988,233.519,311.565,238.442,307.472,240.385z"/>
		</g>
	</g>
</g>
</svg>
